HIERARCHY
ROOT Hips
{
  OFFSET -25.4992 47.4658 0.522821
  CHANNELS 6 Xposition Yposition Zposition Zrotation Xrotation Yrotation
  JOINT Bip01_Pelvis
  {
    OFFSET 0 0 0
    CHANNELS 6 Xposition Yposition Zposition Zrotation Xrotation Yrotation
    JOINT Bip01_Spine
    {
      OFFSET 7.92815 1.03427 -0.957866
      CHANNELS 6 Xposition Yposition Zposition Zrotation Xrotation Yrotation
      JOINT Bip01_Spine1
      {
        OFFSET 14.2482 -0.00839019 0.000894789
        CHANNELS 6 Xposition Yposition Zposition Zrotation Xrotation Yrotation
        JOINT Bip01_Neck
        {
          OFFSET 16.1384 -3.98645 0.000135839
          CHANNELS 6 Xposition Yposition Zposition Zrotation Xrotation Yrotation
          JOINT Bip01_Neck1
          {
            OFFSET 9.69266 -0.00491233 0
            CHANNELS 6 Xposition Yposition Zposition Zrotation Xrotation Yrotation
            JOINT Bip01_Head
            {
              OFFSET 6.2355 0 0
              CHANNELS 6 Xposition Yposition Zposition Zrotation Xrotation Yrotation
              JOINT BN_Mouth_01
              {
                OFFSET 4.58056 2.14338 0
                CHANNELS 6 Xposition Yposition Zposition Zrotation Xrotation Yrotation
                End Site
                {
                  OFFSET 0 0 0
                }
              }
            }
          }
          JOINT Bip01_L_Clavicle
          {
            OFFSET -0.933029 -3.98291 -6.88005
            CHANNELS 6 Xposition Yposition Zposition Zrotation Xrotation Yrotation
            JOINT Bip01_L_UpperArm
            {
              OFFSET 15.6802 0 0
              CHANNELS 6 Xposition Yposition Zposition Zrotation Xrotation Yrotation
              JOINT Bip01_L_Forearm
              {
                OFFSET 15.3149 0 0
                CHANNELS 6 Xposition Yposition Zposition Zrotation Xrotation Yrotation
                JOINT Bip01_L_Hand
                {
                  OFFSET 16.178 0 0
                  CHANNELS 6 Xposition Yposition Zposition Zrotation Xrotation Yrotation
                  JOINT Bip01_L_Finger0
                  {
                    OFFSET 12.9992 0 0
                    CHANNELS 6 Xposition Yposition Zposition Zrotation Xrotation Yrotation
                    End Site
                    {
                      OFFSET 0 0 0
                    }
                  }
                }
              }
              JOINT BN__UpperArm_L_01
              {
                OFFSET 4.92586 2.56729 1.95639
                CHANNELS 6 Xposition Yposition Zposition Zrotation Xrotation Yrotation
                End Site
                {
                  OFFSET 0 0 0
                }
              }
            }
          }
          JOINT Bip01_R_Clavicle
          {
            OFFSET -1.90751 -3.34722 7.0168
            CHANNELS 6 Xposition Yposition Zposition Zrotation Xrotation Yrotation
            JOINT Bip01_R_UpperArm
            {
              OFFSET 15.6801 0 0
              CHANNELS 6 Xposition Yposition Zposition Zrotation Xrotation Yrotation
              JOINT Bip01_R_Forearm
              {
                OFFSET 15.3149 0 0
                CHANNELS 6 Xposition Yposition Zposition Zrotation Xrotation Yrotation
                JOINT Bip01_R_Hand
                {
                  OFFSET 16.1779 0 0
                  CHANNELS 6 Xposition Yposition Zposition Zrotation Xrotation Yrotation
                  JOINT Bip01_R_Finger0
                  {
                    OFFSET 12.9991 0 0
                    CHANNELS 6 Xposition Yposition Zposition Zrotation Xrotation Yrotation
                    End Site
                    {
                      OFFSET 0 0 0
                    }
                  }
                }
              }
              JOINT BN__UpperArm_R_01
              {
                OFFSET 4.92584 2.56728 -1.95638
                CHANNELS 6 Xposition Yposition Zposition Zrotation Xrotation Yrotation
                End Site
                {
                  OFFSET 0 0 0
                }
              }
            }
          }
        }
      }
      JOINT Bip01_L_Thigh
      {
        OFFSET -8.91231 -1.85462 5.82833
        CHANNELS 6 Xposition Yposition Zposition Zrotation Xrotation Yrotation
        JOINT Bip01_L_Calf
        {
          OFFSET 15.7566 0 0
          CHANNELS 6 Xposition Yposition Zposition Zrotation Xrotation Yrotation
          JOINT Bip01_L_HorseLink
          {
            OFFSET 16.2363 0 0
            CHANNELS 6 Xposition Yposition Zposition Zrotation Xrotation Yrotation
            JOINT Bip01_L_Foot
            {
              OFFSET 13.9816 0 0
              CHANNELS 6 Xposition Yposition Zposition Zrotation Xrotation Yrotation
              JOINT Bip01_L_Toe0
              {
                OFFSET 7.68594 5.03696 0
                CHANNELS 6 Xposition Yposition Zposition Zrotation Xrotation Yrotation
                End Site
                {
                  OFFSET 0 0 0
                }
              }
            }
          }
        }
      }
      JOINT Bip01_R_Thigh
      {
        OFFSET -6.80264 -1.57702 -6.62463
        CHANNELS 6 Xposition Yposition Zposition Zrotation Xrotation Yrotation
        JOINT Bip01_R_Calf
        {
          OFFSET 15.7566 0 0
          CHANNELS 6 Xposition Yposition Zposition Zrotation Xrotation Yrotation
          JOINT Bip01_R_HorseLink
          {
            OFFSET 16.2363 0 0
            CHANNELS 6 Xposition Yposition Zposition Zrotation Xrotation Yrotation
            JOINT Bip01_R_Foot
            {
              OFFSET 13.9816 0 0
              CHANNELS 6 Xposition Yposition Zposition Zrotation Xrotation Yrotation
              JOINT Bip01_R_Toe0
              {
                OFFSET 7.68597 5.03696 0
                CHANNELS 6 Xposition Yposition Zposition Zrotation Xrotation Yrotation
                End Site
                {
                  OFFSET 0 0 0
                }
              }
            }
          }
        }
      }
    }
    JOINT BN_Tail_01
    {
      OFFSET -7.9584 -2.82211 0
      CHANNELS 6 Xposition Yposition Zposition Zrotation Xrotation Yrotation
      JOINT BN_Tail_02
      {
        OFFSET 10.9082 0 0.00113176
        CHANNELS 6 Xposition Yposition Zposition Zrotation Xrotation Yrotation
        End Site
        {
          OFFSET 0 0 0
        }
      }
    }
  }
}
MOTION
Frames:	6
Frame Time:	0.0333333
-24.1804 43.8403 -5.83769e-006 -88.9338 -83.373 11.6236 0 0 0 -89.9441 -3.50835e-015 -90 7.98481 1.06468 -3.0756e-005 10.9304 0.196692 0.550312 14.2467 -0.00817489 -7.15255e-007 -15.2819 1.18266 -11.8147 16.1424 -3.99012 0.000285268 -18.9305 -2.14534 -1.70169 9.69216 -0.00481796 0.000283003 -13.7466 -3.24677 6.87258 6.2355 -5.72205e-006 -4.17232e-007 -22.1388 0.552362 -2.42223 4.58057 2.14338 -1.19209e-007 -109.928 -0.0191955 -179.986 -3.79558 -1.35183 -6.91916 -161.431 -19.0189 -90.9677 15.6801 3.8147e-006 -2.38418e-006 -34.8092 -29.2667 62.8031 15.3149 0 9.53674e-007 -68.6672 2.23338e-005 -1.61304e-006 16.1779 -9.53687e-007 1.43051e-006 153.571 -87.8582 155.7 12.9992 -1.9074e-006 -1.07287e-006 -0.502713 1.56006 -0.839551 6.09987 3.12148 -5.23854 -126.021 -79.3773 -131.367 -3.38156 -1.87463 7.01026 -160.83 17.5513 89.0378 15.6802 -3.8147e-006 4.76837e-007 21.4387 82.1968 -135.971 15.3149 -3.21867e-006 1.90735e-006 -46.9623 1.39457e-005 -7.38219e-006 16.178 0 4.76837e-007 5.30336 84.945 -14.0222 12.9992 9.53691e-007 3.55268e-015 -2.61681 -0.773384 18.491 5.03887 3.89273 -1.75287 53.9721 -79.3762 48.6257 -8.10238 0.491074 6.23726 -139.707 12.2364 -169.774 15.7566 4.55975e-006 -9.53673e-007 -61.7217 -3.26332e-007 5.86973e-007 16.2363 -3.8147e-006 -9.53673e-007 85.8421 9.71009e-006 8.16515e-007 13.9816 3.8147e-006 9.53672e-007 -48.7293 -4.28826 -2.1502 7.6859 5.03696 9.53672e-007 89.9963 -5.42308e-006 4.33801e-007 -7.98165 0.447407 -6.39551 -110.856 -0.812667 171.495 15.7566 -1.90735e-006 0 -63.309 3.85493e-007 1.91866e-006 16.2363 0 -1.77635e-015 72.3031 9.32726e-007 1.60858e-006 13.9816 0 0 -6.74771 7.8511 9.10641 7.68595 5.03694 0 89.9962 3.5583e-006 -1.33164e-006 -7.95841 -2.8221 4.76837e-007 -64.239 2.51055 -178.261 10.9082 7.10542e-015 0.00119135 29.9375 -0.0074923 26.3631 
-24.1932 43.8749 -5.8421e-006 -88.9986 -83.3812 11.5747 3.31396e-007 1.57583e-008 2.07984e-006 -89.9967 -3.50835e-015 -90 7.9854 1.06117 0.0015285 10.8844 0.299419 0.487869 14.2467 -0.00819217 -3.66239e-007 -15.153 0.953259 -11.8446 16.1423 -3.99002 0.000276346 -19.0226 -1.91795 -1.71868 9.69211 -0.00481571 0.00032092 -13.7703 -2.91733 6.89368 6.23547 1.66224e-006 -5.18553e-007 -21.3303 0.368709 -2.16551 4.58055 2.14337 -4.3484e-007 -109.686 -0.0214996 -179.985 -3.79556 -1.38584 -6.91246 -161.356 -18.7596 -91.0559 15.6801 8.8269e-007 -3.04885e-006 -34.4502 -29.3967 63.197 15.3148 5.98496e-006 -4.42124e-006 -68.6249 -2.76776e-005 2.0508e-005 16.1778 -1.24209e-006 -2.23402e-006 151.553 -88.2442 154.14 12.9991 1.47223e-006 -2.32208e-006 -0.460522 1.63315 -0.817108 6.09984 3.12147 -5.23851 -126.021 -79.3773 -131.367 -3.37729 -1.85227 7.01848 -160.698 17.7642 88.9427 15.6801 -1.70831e-006 -3.24604e-006 20.2643 82.5279 -134.574 15.3148 -8.58136e-007 4.01123e-006 -47.0463 1.84776e-005 -2.47482e-006 16.1779 -1.17245e-006 7.25437e-007 7.56269 85.3826 -16.1163 12.9991 9.48365e-007 -1.95022e-007 -2.60144 -0.745005 18.4912 5.03885 3.89272 -1.75286 53.9723 -79.3762 48.6259 -8.09681 0.500272 6.24308 -139.622 12.3128 -169.902 15.7565 6.82137e-006 2.27174e-006 -61.5181 2.08076e-005 2.47168e-006 16.2362 -3.85508e-006 -3.50198e-006 85.6894 1.10669e-005 -1.72113e-005 13.9815 9.72717e-006 4.9969e-006 -48.7098 -4.28684 -2.14483 7.68586 5.03694 4.87029e-007 89.9962 -2.14852e-006 -2.39893e-005 -7.98842 0.433887 -6.38977 -110.934 -0.790588 171.386 15.7565 4.89438e-006 -1.27612e-006 -63.2598 1.63873e-006 1.12127e-005 16.2363 -6.14529e-006 8.52542e-007 72.0867 4.50024e-006 -9.48964e-006 13.9815 4.57211e-006 -1.03292e-006 -6.65198 7.85552 9.09262 7.68591 5.03692 1.09431e-007 89.9962 6.04251e-006 1.84271e-005 -7.95838 -2.82209 5.11629e-007 -63.8835 2.50691 -178.529 10.9081 -2.30931e-006 0.00119142 30.9789 0.0116905 25.9548 
-24.1447 43.8573 -5.83976e-006 -88.749 -83.3608 11.7599 1.29195e-006 -4.52918e-008 4.30945e-007 -90.0054 -0.12575 -89.9407 7.98709 1.0489 0.00698676 10.7719 0.421394 0.371257 14.2467 -0.00820313 -1.34351e-006 -14.9374 0.638521 -11.888 16.1424 -3.98996 0.000272953 -19.4339 -1.69438 -1.73088 9.69212 -0.00482051 0.000361997 -13.7941 -2.58789 6.91497 6.2355 -3.41551e-006 2.38493e-007 -20.0799 0.288088 -1.76749 4.58057 2.14338 2.56096e-007 -109.444 -0.0238037 -179.983 -3.78589 -1.43875 -6.90755 -160.962 -18.4055 -91.1264 15.6801 3.15389e-006 -2.09312e-008 -34.0214 -29.2945 63.568 15.3149 -4.82887e-006 2.79291e-006 -68.6799 5.50432e-005 6.81126e-006 16.1779 6.18234e-006 -3.42471e-006 153.367 -88.594 156.471 12.9992 2.76994e-006 4.82872e-006 -0.418341 1.70617 -0.794747 6.09986 3.12148 -5.23854 -126.021 -79.3773 -131.367 -3.36348 -1.85228 7.0253 -160.267 17.9536 88.872 15.6801 3.26775e-009 -6.40152e-007 17.1948 82.6508 -131.251 15.3149 -2.90947e-007 -8.76759e-007 -47.4622 -1.37908e-006 1.64843e-005 16.1779 2.70632e-006 -2.00717e-006 10.8221 85.8709 -19.1733 12.9992 -4.74972e-007 3.53401e-007 -2.58607 -0.716599 18.4916 5.03887 3.89273 -1.75287 53.9723 -79.3762 48.6259 -8.08348 0.510668 6.25326 -139.343 12.4141 -170.103 15.7566 -4.48605e-006 -1.05166e-007 -61.4855 -3.14955e-005 -3.92242e-006 16.2363 -1.54484e-007 -5.10568e-008 85.8803 -4.40295e-005 -1.38008e-005 13.9816 -6.25675e-007 -3.47958e-008 -48.7801 -4.29863 -2.16109 7.68591 5.03697 -1.17954e-006 89.9962 -2.285e-005 1.74926e-005 -8.00088 0.417311 -6.37978 -110.889 -0.810157 171.206 15.7566 -3.98697e-006 1.78129e-006 -63.3994 1.61101e-006 1.12126e-005 16.2363 7.02854e-006 -7.17564e-007 72.0218 6.01089e-006 -8.99481e-006 13.9816 -3.09647e-006 7.4001e-007 -6.49175 7.86713 9.10276 7.68596 5.03695 2.66354e-006 89.9963 -1.57499e-005 -2.34134e-006 -7.9584 -2.8221 1.31632e-006 -63.4829 2.49594 -178.777 10.9082 8.88606e-007 0.00119166 32.0435 0.0335693 24.787 
-24.0429 43.7924 -5.83344e-006 -88.1834 -83.3216 12.186 -6.60348e-007 -3.11308e-008 2.0613e-007 -89.9814 -0.268873 -89.8779 7.98974 1.02788 0.015566 10.5967 0.559835 0.204452 14.2468 -0.00822488 -2.36638e-007 -14.6415 0.249416 -11.9426 16.1425 -3.98987 0.000265192 -20.112 -1.48635 -1.73417 9.69212 -0.00481904 0.000400287 -13.7751 -2.4292 6.91128 6.2355 -1.76338e-006 -2.48585e-007 -18.4621 0.31227 -1.26729 4.58058 2.14338 -1.88752e-007 -109.201 -0.0260925 -179.981 -3.76543 -1.50678 -6.9035 -160.292 -18.0108 -91.1759 15.6802 2.48249e-006 -1.36919e-006 -33.5877 -29.0124 63.8905 15.3149 2.06691e-006 4.77573e-007 -68.7902 -6.53368e-006 -1.22526e-006 16.1779 -1.22969e-007 4.72426e-007 161.899 -88.8967 165.562 12.9992 -6.15399e-007 -5.69702e-007 -0.437547 1.83895 -0.251788 6.09987 3.12149 -5.23854 -126.021 -79.3773 -131.367 -3.34329 -1.86776 7.03064 -159.562 18.1429 88.8164 15.6802 -3.51948e-006 -4.34909e-007 12.5183 82.5555 -126.284 15.3149 2.47772e-006 4.24057e-007 -48.17 -1.99477e-005 -3.94805e-006 16.178 -5.37682e-006 1.40166e-006 15.5043 86.4021 -23.6137 12.9992 1.05278e-006 5.35728e-006 -2.5707 -0.68821 18.4918 5.03887 3.89274 -1.75287 53.9725 -79.3763 48.626 -8.0657 0.521354 6.2668 -138.896 12.4923 -170.348 15.7566 3.24255e-006 1.56685e-006 -61.6117 1.63286e-005 -5.79602e-006 16.2363 2.12773e-006 -4.34313e-007 86.3782 1.03677e-005 -9.9601e-006 13.9816 1.84508e-007 2.45124e-006 -48.9367 -4.32666 -2.2003 7.68591 5.03697 -4.05428e-007 89.9963 2.01123e-005 -5.48289e-006 -8.02012 0.397687 -6.36605 -110.738 -0.797377 170.913 15.7566 -3.68531e-006 6.95423e-007 -63.7162 1.54732e-006 1.12154e-005 16.2364 3.57764e-006 6.77171e-007 72.0909 1.19316e-005 -7.08556e-006 13.9816 -1.97871e-006 8.74746e-007 -6.26269 7.88689 9.12592 7.68596 5.03695 1.43332e-006 89.9962 2.71604e-005 -8.89013e-006 -7.9584 -2.8221 6.6587e-007 -63.0412 2.48485 -179.015 10.9082 -5.7381e-007 0.00119082 33.113 0.0643902 22.9592 
-23.8957 43.6851 -5.819e-006 -87.3932 -83.2688 12.7722 1.32628e-006 -6.58242e-008 6.99031e-007 -89.9616 -0.467388 -89.7877 7.99294 0.999814 0.0280429 10.3625 0.708596 -0.00808483 14.2463 -0.00823865 2.0133e-007 -14.2813 -0.195614 -12.0014 16.1418 -3.98962 0.000260886 -21.0043 -1.29075 -1.72974 9.6916 -0.00482822 0.000440742 -13.7561 -2.27048 6.90756 6.23515 -7.49438e-006 3.08311e-007 -16.5938 0.431787 -0.682739 4.58028 2.14324 -1.6017e-007 -108.959 -0.028305 -179.98 -3.73832 -1.58606 -6.90024 -159.4 -17.6184 -91.211 15.6793 2.04097e-006 1.79349e-006 -33.1973 -28.5946 64.1529 15.314 -6.18395e-006 1.05204e-006 -68.9002 -1.62794e-005 -2.73284e-005 16.1769 5.61905e-006 7.12407e-006 -179.662 -89.0795 -175.408 12.9981 -5.82529e-006 3.58917e-006 -0.458001 1.97151 0.291196 6.09954 3.12131 -5.23825 -126.021 -79.3773 -131.368 -3.31653 -1.90033 7.03464 -158.653 18.3058 88.7787 15.6791 2.13075e-005 2.33033e-006 6.99323 82.2303 -120.443 15.3139 -4.3461e-006 1.69883e-006 -49.1293 2.62723e-005 -3.43217e-005 16.1767 7.94169e-006 3.30193e-006 22.3531 86.9654 -30.1812 12.9981 2.99547e-006 -5.51292e-006 -2.5553 -0.65984 18.492 5.03854 3.89247 -1.75275 53.9728 -79.3763 48.6263 -8.04209 0.532617 6.2832 -138.313 12.649 -170.672 15.7558 -1.23025e-005 -8.46771e-006 -61.8806 -4.68455e-005 -2.68856e-005 16.2355 1.53569e-005 7.18747e-006 87.1383 -4.70881e-005 4.17498e-005 13.9806 -1.20942e-005 -8.31209e-006 -49.1561 -4.36644 -2.25565 7.68541 5.03663 -3.98409e-006 89.9963 4.54785e-006 4.4806e-005 -8.0436 0.375431 -6.34897 -110.518 -0.780637 170.54 15.7559 -2.56201e-006 -6.51045e-007 -64.2109 1.3424e-006 1.12711e-005 16.2354 1.25036e-005 -2.00736e-006 72.2684 1.19121e-005 -7.12418e-006 13.9808 -2.4238e-006 6.45244e-007 -5.96182 7.8963 9.18895 7.68542 5.03659 5.09086e-007 89.9962 1.1552e-005 -1.35501e-005 -7.95825 -2.82205 8.64276e-007 -62.5623 2.47459 -179.243 10.908 4.47754e-007 0.00119119 34.1578 0.120403 20.3427 
-23.711 43.5401 -5.80265e-006 -86.424 -83.1946 13.4849 9.2638e-007 -6.19445e-008 -3.82595e-007 -89.94 -0.714048 -89.6806 7.99724 0.966521 0.0428601 10.073 0.869511 -0.252162 14.2466 -0.00825386 -1.51317e-008 -13.8696 -0.680968 -12.0653 16.1422 -3.98964 0.000254782 -22.0586 -1.11557 -1.71753 9.69188 -0.00483388 0.00048066 -13.6924 -2.3532 6.8773 6.23535 -6.39894e-006 2.80137e-006 -14.5628 0.636442 -0.0421152 4.58046 2.14332 1.66362e-006 -108.311 -0.0376587 -179.958 -3.70398 -1.67208 -6.89871 -158.339 -17.2807 -91.2248 15.6798 1.40069e-005 -1.66834e-006 -32.9104 -28.0944 64.3433 15.3145 -3.22214e-006 -4.30617e-006 -68.9767 -1.53998e-005 4.99235e-005 16.1775 4.72824e-006 -1.026e-005 -154.375 -89.0322 -149.537 12.9987 7.97791e-006 3.16318e-006 -0.479633 2.10388 0.83431 6.09972 3.1214 -5.23841 -126.021 -79.3773 -131.367 -3.28581 -1.94338 7.03728 -157.588 18.4523 88.7619 15.6796 -4.41117e-006 -1.33539e-006 1.19139 81.6765 -114.299 15.3144 1.30882e-006 -1.09356e-005 -50.2818 -5.01965e-005 4.45155e-005 16.1773 5.46109e-007 -7.47454e-006 32.0507 87.469 -39.5977 12.9987 -5.14979e-006 3.42975e-006 -2.54003 -0.631408 18.4924 5.03871 3.89261 -1.75282 53.9733 -79.3764 48.6268 -8.01553 0.543909 6.30176 -137.614 12.774 -171.022 15.7561 2.58289e-006 -2.26725e-006 -62.2684 -1.4608e-005 -5.90085e-006 16.2357 1.43586e-006 1.08274e-006 88.1174 -1.8351e-005 2.10522e-005 13.9809 -1.63004e-006 -4.22957e-006 -49.4347 -4.41311 -2.32882 7.68554 5.03672 -3.99258e-006 89.9962 9.13811e-006 1.15007e-005 -8.07201 0.351896 -6.3299 -110.245 -0.751764 170.108 15.7562 -1.99544e-006 1.09761e-006 -64.8727 2.09239e-006 1.31605e-005 16.2359 3.20078e-006 -1.74342e-006 72.5285 1.23791e-005 -7.0255e-006 13.9812 -3.38215e-007 1.15649e-006 -5.59235 7.9217 9.25837 7.68574 5.0368 2.03614e-006 89.9962 -1.57842e-005 -3.62187e-005 -7.95834 -2.82208 2.44343e-007 -62.0506 2.46306 -179.456 10.9081 2.24679e-009 0.00119081 35.2043 0.128678 17.7256 
